<?xml version="1.0" encoding="UTF-8" standalone="no" ?>
<!DOCTYPE svg PUBLIC "-//W3C//DTD SVG 1.1//EN" "http://www.w3.org/Graphics/SVG/1.1/DTD/svg11.dtd">
<svg xmlns="http://www.w3.org/2000/svg" xmlns:xlink="http://www.w3.org/1999/xlink" version="1.1" width="180" height="40" viewBox="0 0 180 40" xml:space="preserve">
<desc>Created with Fabric.js 3.6.3</desc>
<defs>
</defs>
<g transform="matrix(1 0 0 1 89 21.5)"  >
<g style=""   >
		<g transform="matrix(1 0 0 1 0 0)"  >
<rect style="stroke: none; stroke-width: 1; stroke-dasharray: none; stroke-linecap: butt; stroke-dashoffset: 0; stroke-linejoin: miter; stroke-miterlimit: 4; fill: none; fill-rule: nonzero; opacity: 1;"  x="-180" y="-26.5" rx="0" ry="0" width="360" height="53" />
</g>
		<g transform="matrix(1 0 0 1 0 0)"  >
<rect style="stroke: none; stroke-width: 1; stroke-dasharray: none; stroke-linecap: butt; stroke-dashoffset: 0; stroke-linejoin: miter; stroke-miterlimit: 4; fill: none; fill-rule: nonzero; opacity: 1;"  x="-180" y="-26.5" rx="0" ry="0" width="360" height="53" />
</g>
		<g transform="matrix(1 0 0 1 74.26 -0.74)"  >
<path style="stroke: none; stroke-width: 1; stroke-dasharray: none; stroke-linecap: butt; stroke-dashoffset: 0; stroke-linejoin: miter; stroke-miterlimit: 4; fill: rgb(0,0,0); fill-rule: nonzero; opacity: 1;"  transform=" translate(-254.26, -25.76)" d="M 262.041 37.52 C 261.491 37.52 261.041 37.07 261.041 36.52 V 33.35 C 261.041 31.54 260.331 29.84 259.051 28.55 C 258.501 28.01 257.881 27.57 257.201 27.24 C 256.871 27.08 256.661 26.77 256.631 26.41 C 256.601 26.05 256.781 25.7 257.081 25.51 C 258.551 24.55 259.421 22.93 259.421 21.18 C 259.421 18.33 257.101 16.02 254.261 16.02 C 251.411 16.02 249.091 18.34 249.091 21.18 C 249.091 22.93 249.971 24.55 251.441 25.51 C 251.741 25.71 251.911 26.05 251.891 26.41 C 251.871 26.77 251.651 27.09 251.321 27.24 C 248.991 28.36 247.481 30.75 247.481 33.34 V 36.51 C 247.481 37.06 247.031 37.51 246.481 37.51 C 245.931 37.51 245.481 37.06 245.481 36.51 V 33.34 C 245.481 30.49 246.891 27.83 249.161 26.2 C 247.851 24.87 247.091 23.07 247.091 21.16 C 247.091 17.21 250.311 14 254.261 14 C 258.211 14 261.421 17.21 261.421 21.16 C 261.421 23.07 260.671 24.87 259.361 26.2 C 259.751 26.48 260.111 26.78 260.461 27.12 C 262.121 28.78 263.041 30.99 263.041 33.33 V 36.5 C 263.041 37.07 262.591 37.52 262.041 37.52 Z" stroke-linecap="round" />
</g>
		<g transform="matrix(1 0 0 1 -23.09 -1.78)"  >
<path style="stroke: none; stroke-width: 1; stroke-dasharray: none; stroke-linecap: butt; stroke-dashoffset: 0; stroke-linejoin: miter; stroke-miterlimit: 4; fill: rgb(0,0,0); fill-rule: nonzero; opacity: 1;"  transform=" translate(-156.91, -24.72)" d="M 156.911 35.42 C 151.011 35.42 146.211 30.62 146.211 24.72 C 146.211 18.82 151.011 14.02 156.911 14.02 C 162.811 14.02 167.611 18.82 167.611 24.72 C 167.611 30.62 162.811 35.42 156.911 35.42 Z M 156.911 16.01 C 152.111 16.01 148.211 19.91 148.211 24.71 C 148.211 29.51 152.111 33.41 156.911 33.41 C 161.711 33.41 165.611 29.51 165.611 24.71 C 165.611 19.91 161.711 16.01 156.911 16.01 Z" stroke-linecap="round" />
</g>
		<g transform="matrix(1 0 0 1 -13.74 7.55)"  >
<path style="stroke: none; stroke-width: 1; stroke-dasharray: none; stroke-linecap: butt; stroke-dashoffset: 0; stroke-linejoin: miter; stroke-miterlimit: 4; fill: rgb(0,0,0); fill-rule: nonzero; opacity: 1;"  transform=" translate(-166.26, -34.05)" d="M 168.741 37.53 C 168.481 37.53 168.231 37.43 168.031 37.24 L 163.071 32.28 C 162.681 31.89 162.681 31.26 163.071 30.87 C 163.461 30.48 164.091 30.48 164.481 30.87 L 169.441 35.83 C 169.831 36.22 169.831 36.85 169.441 37.24 C 169.251 37.43 168.991 37.53 168.741 37.53 Z" stroke-linecap="round" />
</g>
		<g transform="matrix(1 0 0 1 -71.09 3.84)"  >
<path style="stroke: none; stroke-width: 1; stroke-dasharray: none; stroke-linecap: butt; stroke-dashoffset: 0; stroke-linejoin: miter; stroke-miterlimit: 4; fill: rgb(0,0,0); fill-rule: nonzero; opacity: 1;"  transform=" translate(-108.91, -30.34)" d="M 117.111 37.52 H 100.701 C 100.231 37.52 99.8209 37.19 99.7209 36.73 L 97.0209 24.36 C 96.9609 24.06 97.0309 23.76 97.2209 23.52 C 97.4109 23.28 97.7009 23.15 98.0009 23.15 H 119.821 C 120.121 23.15 120.411 23.29 120.601 23.52 C 120.791 23.76 120.861 24.06 120.801 24.36 L 118.091 36.73 C 117.991 37.19 117.581 37.52 117.111 37.52 Z M 101.511 35.52 H 116.311 L 118.581 25.15 H 99.2409 L 101.511 35.52 Z" stroke-linecap="round" />
</g>
		<g transform="matrix(1 0 0 1 -76.07 -6.92)"  >
<path style="stroke: none; stroke-width: 1; stroke-dasharray: none; stroke-linecap: butt; stroke-dashoffset: 0; stroke-linejoin: miter; stroke-miterlimit: 4; fill: rgb(0,0,0); fill-rule: nonzero; opacity: 1;"  transform=" translate(-103.93, -19.58)" d="M 100.861 25.15 C 100.671 25.15 100.471 25.09 100.301 24.98 C 99.8409 24.67 99.7208 24.05 100.031 23.59 L 106.171 14.46 C 106.481 14 107.101 13.88 107.561 14.19 C 108.021 14.5 108.141 15.12 107.831 15.58 L 101.691 24.71 C 101.501 24.99 101.181 25.15 100.861 25.15 Z" stroke-linecap="round" />
</g>
		<g transform="matrix(1 0 0 1 -66.71 -5.73)"  >
<path style="stroke: none; stroke-width: 1; stroke-dasharray: none; stroke-linecap: butt; stroke-dashoffset: 0; stroke-linejoin: miter; stroke-miterlimit: 4; fill: rgb(0,0,0); fill-rule: nonzero; opacity: 1;"  transform=" translate(-113.29, -20.77)" d="M 116.951 24.95 C 116.721 24.95 116.481 24.87 116.291 24.7 L 108.981 18.34 C 108.561 17.98 108.521 17.35 108.881 16.93 C 109.241 16.51 109.881 16.47 110.291 16.83 L 117.601 23.19 C 118.021 23.55 118.061 24.18 117.701 24.6 C 117.511 24.83 117.231 24.95 116.951 24.95 Z" stroke-linecap="round" />
</g>
		<g transform="matrix(1 0 0 1 -74.75 4.06)"  >
<path style="stroke: none; stroke-width: 1; stroke-dasharray: none; stroke-linecap: butt; stroke-dashoffset: 0; stroke-linejoin: miter; stroke-miterlimit: 4; fill: rgb(0,0,0); fill-rule: nonzero; opacity: 1;"  transform=" translate(-105.25, -30.56)" d="M 105.781 33.96 C 105.321 33.96 104.911 33.64 104.801 33.17 L 103.751 28.38 C 103.631 27.84 103.971 27.31 104.511 27.19 C 105.051 27.07 105.581 27.41 105.701 27.95 L 106.751 32.74 C 106.871 33.28 106.531 33.81 105.991 33.93 C 105.921 33.96 105.851 33.96 105.781 33.96 Z" stroke-linecap="round" />
</g>
		<g transform="matrix(1 0 0 1 -67.43 4.07)"  >
<path style="stroke: none; stroke-width: 1; stroke-dasharray: none; stroke-linecap: butt; stroke-dashoffset: 0; stroke-linejoin: miter; stroke-miterlimit: 4; fill: rgb(0,0,0); fill-rule: nonzero; opacity: 1;"  transform=" translate(-112.57, -30.57)" d="M 112.041 33.96 C 111.971 33.96 111.901 33.95 111.831 33.94 C 111.291 33.82 110.951 33.29 111.071 32.75 L 112.121 27.96 C 112.241 27.42 112.771 27.08 113.311 27.2 C 113.851 27.32 114.191 27.85 114.071 28.39 L 113.021 33.18 C 112.921 33.65 112.501 33.96 112.041 33.96 Z" stroke-linecap="round" />
</g>
		<g transform="matrix(1 0 0 1 28.09 -0.73)"  >
<path style="stroke: none; stroke-width: 1; stroke-dasharray: none; stroke-linecap: butt; stroke-dashoffset: 0; stroke-linejoin: miter; stroke-miterlimit: 4; fill: rgb(0,0,0); fill-rule: nonzero; opacity: 1;"  transform=" translate(-208.09, -25.77)" d="M 208.091 37.52 C 207.831 37.52 207.581 37.42 207.381 37.23 L 197.611 27.46 C 194.581 24.37 194.611 19.38 197.661 16.33 C 199.161 14.83 201.141 14.01 203.251 14.01 C 205.031 14.02 206.711 14.6 208.081 15.66 C 211.171 13.26 215.671 13.49 218.511 16.33 C 220.001 17.82 220.821 19.8 220.831 21.91 C 220.831 24 220.021 25.96 218.561 27.45 L 208.791 37.22 C 208.611 37.42 208.351 37.52 208.091 37.52 Z M 203.251 16.01 C 201.681 16.01 200.201 16.63 199.081 17.74 C 196.801 20.02 196.781 23.74 199.041 26.05 L 208.091 35.1 L 217.141 26.05 C 218.231 24.94 218.831 23.48 218.831 21.92 C 218.831 20.34 218.211 18.86 217.101 17.75 C 214.811 15.46 211.081 15.45 208.781 17.71 C 208.391 18.09 207.771 18.09 207.381 17.71 C 206.281 16.62 204.821 16.02 203.251 16.01 Z" stroke-linecap="round" />
</g>
</g>
</g>
</svg>